<?xml version="1.0" encoding="utf-8" ?>
<svg baseProfile="full" height="200mm" version="1.1" viewBox="0,0,200,200" width="200mm" xmlns="http://www.w3.org/2000/svg" xmlns:ev="http://www.w3.org/2001/xml-events" xmlns:xlink="http://www.w3.org/1999/xlink"><defs /><rect fill="#1a1a1a" height="200" width="200" x="0" y="0" /><text alignment-baseline="middle" fill="#e1ed5e" style="dominant-baseline: central; font-size:9.0px; font-family:Arial;" text-anchor="middle" x="100.0" y="100.0">2021</text><line stroke="#e1ed5e" stroke-width="0.3" x1="100.0" x2="100.0" y1="15.0" y2="10.0" /><path d="M 100.0 14.0 a86.0,86.0 0 0,1 42.46469731375804,11.215312516191453" fill="none" id="id1" stroke="none" /><text fill="#e1ed5e" style="font-size:6.75px; font-family:Arial;" text-anchor="middle"><textPath startOffset="22.20632615414155" xlink:href="#id1">January</textPath></text><line stroke="#e1ed5e" stroke-width="0.3" x1="143.23703022742887" x2="145.7803849466894" y1="26.81831364943548" y2="22.513508569990506" /><path d="M 143.74570117128098 25.957352633546492 a86.0,86.0 0 0,1 28.547481713284135,27.462654790039103" fill="none" id="id2" stroke="none" /><text fill="#e1ed5e" style="font-size:6.75px; font-family:Arial;" text-anchor="middle"><textPath startOffset="19.985693538727396" xlink:href="#id2">February</textPath></text><line stroke="#e1ed5e" stroke-width="0.3" x1="172.23445277983987" x2="176.4835382374775" y1="55.19839476539836" y2="52.563006222186495" /><path d="M 173.08426987136738 54.67131705675599 a86.0,86.0 0 0,1 12.851231095245387,41.99856678651699" fill="none" id="id3" stroke="none" /><text fill="#e1ed5e" style="font-size:6.75px; font-family:Arial;" text-anchor="middle"><textPath startOffset="22.20632615414155" xlink:href="#id3">March</textPath></text><line stroke="#e1ed5e" stroke-width="0.3" x1="184.98032266829074" x2="189.97916517819016" y1="98.17113171792111" y2="98.06355123074" /><path d="M 185.9800911702706 98.14961562048488 a86.0,86.0 0 0,1 -9.607161424134198,41.387399972396054" fill="none" id="id4" stroke="none" /><text fill="#e1ed5e" style="font-size:6.75px; font-family:Arial;" text-anchor="middle"><textPath startOffset="21.466115282336823" xlink:href="#id4">April</textPath></text><line stroke="#e1ed5e" stroke-width="0.3" x1="174.80103733775053" x2="179.2010983576182" y1="140.37084112569926" y2="142.7455964860345" /><path d="M 175.68104954172406 140.8457921977663 a86.0,86.0 0 0,1 -30.038265399797805,32.042727171017184" fill="none" id="id5" stroke="none" /><text fill="#e1ed5e" style="font-size:6.75px; font-family:Arial;" text-anchor="middle"><textPath startOffset="22.206326154141568" xlink:href="#id5">May</textPath></text><line stroke="#e1ed5e" stroke-width="0.3" x1="143.8653032363475" x2="146.44561519142675" y1="172.8068346515853" y2="177.08958963109032" /><path d="M 144.38136562736335 173.6633856474863 a86.0,86.0 0 0,1 -40.68145358897372,12.25698825130547" fill="none" id="id6" stroke="none" /><text fill="#e1ed5e" style="font-size:6.75px; font-family:Arial;" text-anchor="middle"><textPath startOffset="21.466115282336833" xlink:href="#id6">June</textPath></text><line stroke="#e1ed5e" stroke-width="0.3" x1="102.19456741930631" x2="102.32365962044197" y1="184.97166512339345" y2="189.96999836594603" /><path d="M 102.22038585953345 185.97133177190398 a86.0,86.0 0 0,1 -42.740103519485714,-10.115201625700543" fill="none" id="id7" stroke="none" /><text fill="#e1ed5e" style="font-size:6.75px; font-family:Arial;" text-anchor="middle"><textPath startOffset="22.20632615414155" xlink:href="#id7">July</textPath></text><line stroke="#e1ed5e" stroke-width="0.3" x1="58.666819895761336" x2="56.23545636021788" y1="174.27360380694188" y2="178.64263932499728" /><path d="M 58.180547188652646 175.14741091055294 a86.0,86.0 0 0,1 -31.652253787137756,-30.449443065178592" fill="none" id="id8" stroke="none" /><text fill="#e1ed5e" style="font-size:6.75px; font-family:Arial;" text-anchor="middle"><textPath startOffset="22.20632615414155" xlink:href="#id8">August</textPath></text><line stroke="#e1ed5e" stroke-width="0.3" x1="26.63291911575756" x2="22.317208475507996" y1="142.92168965132927" y2="145.44649492493687" /><path d="M 25.769776987707644 143.4266507060508 a86.0,86.0 0 0,1 -11.730757126820373,-40.83630448921669" fill="none" id="id9" stroke="none" /><text fill="#e1ed5e" style="font-size:6.75px; font-family:Arial;" text-anchor="middle"><textPath startOffset="21.46611528233685" xlink:href="#id9">September</textPath></text><line stroke="#e1ed5e" stroke-width="0.3" x1="15.007084014347285" x2="10.007500721073583" y1="101.09737516637583" y2="101.16192664675087" /><path d="M 14.007167355692545 101.11028546245083 a86.0,86.0 0 0,1 10.666146001902534,-42.60595125391555" fill="none" id="id10" stroke="none" /><text fill="#e1ed5e" style="font-size:6.75px; font-family:Arial;" text-anchor="middle"><textPath startOffset="22.20632615414155" xlink:href="#id10">October</textPath></text><line stroke="#e1ed5e" stroke-width="0.3" x1="26.266209847984243" x2="21.928928074336255" y1="57.711370442889674" y2="55.22380399835377" /><path d="M 25.398753493254645 57.213857153982495 a86.0,86.0 0 0,1 29.58750427330803,-30.492523968695096" fill="none" id="id11" stroke="none" /><text fill="#e1ed5e" style="font-size:6.75px; font-family:Arial;" text-anchor="middle"><textPath startOffset="21.46611528233685" xlink:href="#id11">November</textPath></text><line stroke="#e1ed5e" stroke-width="0.3" x1="56.76296977257108" x2="54.21961505331056" y1="26.818313649435495" y2="22.513508569990535" /><path d="M 56.25429882871898 25.957352633546506 a86.0,86.0 0 0,1 42.26535254187918,-11.944610805530505" fill="none" id="id12" stroke="none" /><text fill="#e1ed5e" style="font-size:6.75px; font-family:Arial;" text-anchor="middle"><textPath startOffset="22.20632615414155" xlink:href="#id12">December</textPath></text><path d="M 89.63071344664047 81.73862282372117 l -17.194395159343927 -30.281093468386434 a55.822289507394906,55.822289507394906 0 0,0 0.8396626927729695,-0.4672713794446521 l 16.670608377498912 30.57258024539127" fill="red" stroke="none" /><path d="M 89.94658935756843 81.56283822128135 l -16.591874027236475 -30.428187660132284 a55.65782578316059,55.65782578316059 0 0,0 0.8450844500202551,-0.4514148460729369 l 16.065644530687912 30.70928123270697" fill="red" stroke="none" /><path d="M 90.58718382345135 81.22770947309562 l -14.107166389203766 -28.134388370326782 a52.47309887038547,52.47309887038547 0 0,0 0.810906109163945,-0.3979081060401803 l 13.620789013029395 28.373051636501792" fill="red" stroke="none" /><path d="M 90.91171255644093 81.06846463323043 l -13.511246943574594 -28.144867880770956 a52.219983696285084,52.219983696285084 0 0,0 0.8136912605239852,-0.3820389572246324 l 13.024777471751 28.373271820635598" fill="red" stroke="none" /><path d="M 91.56875222667455 80.76684994638697 l -12.728366194189409 -29.035628359148998 a52.702981250727845,52.702981250727845 0 0,0 0.834002699166177,-0.3570764309581899 l 12.226679737232923 29.25042431806997" fill="red" stroke="none" /><path d="M 91.90106846888425 80.62456947434976 l -12.651574188702314 -30.26691802388172 a53.80470478630488,53.80470478630488 0 0,0 0.8575858373338816,-0.34983079574649156 l 12.128704481780051 30.480209705811784" fill="red" stroke="none" /><path d="M 92.57280143429618 80.3572730644239 l -11.283944624219396 -29.842670967919634 a52.904739722836844,52.904739722836844 0 0,0 0.8545820363994445,-0.31474977612039456 l 10.768580262047383 30.03248401184635" fill="red" stroke="none" /><path d="M 93.25333710446033 80.11325718540243 l -20.239988686619004 -59.66022844379273 a84.0,84.0 0 0,0 1.3732687110303627,-0.45274510296306447 l 19.21003715334623 59.99978727101503" fill="red" stroke="none" /><path d="M 93.59665428221793 80.00007090966166 l -9.553565117429265 -29.839186158247315 a52.33125655059975,52.33125655059975 0 0,0 0.8602626297949775,-0.2672877866212046 l 9.038517114923557 29.999214079751045" fill="red" stroke="none" /><path d="M 94.63758080256005 79.69619591428918 l -8.033324858025798 -30.416692181039256 a52.459648305578206,52.459648305578206 0 0,0 0.8750546906740513,-0.2230709245582527 l 7.508561278666748 30.55046610176637" fill="red" stroke="none" /><path d="M 94.98787191387505 79.60689891045804 l -7.665135560616555 -31.18752786574326 a53.115669034587164,53.115669034587164 0 0,0 0.8897540103573987,-0.21057602745247325 l 7.127157863296623 31.314849805336603" fill="red" stroke="none" /><path d="M 95.692805502759 79.44645832069477 l -6.804509578542816 -32.470502857346546 a54.17581809712356,54.17581809712356 0 0,0 0.914368082296133,-0.18341363538029248 l 6.244575086779546 32.58282044880405" fill="red" stroke="none" /><path d="M 96.04723909329186 79.375362276772 l -7.083621895059767 -36.9607822992773 a58.633457552113654,58.633457552113654 0 0,0 0.9928735034351439,-0.18144128646505464 l 6.44635327052173 37.07723906709309" fill="red" stroke="none" /><path d="M 96.75951476605007 79.25152402106235 l -4.843463125240331 -31.01216979977523 a52.38811575637591,52.38811575637591 0 0,0 0.892172154827366,-0.13148298403688868 l 4.3089219899843165 31.09094726797309" fill="red" stroke="none" /><path d="M 97.11714578562143 79.19881850522333 l -4.780780799616212 -34.49563581937739 a55.82534645394201,55.82534645394201 0 0,0 0.9529792609373477,-0.12372405875759411 l 4.186286810171007 34.57281820129912" fill="red" stroke="none" /><path d="M 97.83486435360386 79.11191278185805 l -3.890032927984129 -37.52898679416489 a58.730057063002214,58.730057063002214 0 0,0 1.0064510391205281,-0.09557465336764169 l 3.2434567617733645 37.59038699204771" fill="red" stroke="none" /><path d="M 98.19473922651362 79.07773832637324 l -3.49279171895921 -40.48008098819554 a61.63048794689648,61.63048794689648 0 0,0 1.0577253566879956,-0.08209984483388429 l 2.79547617290888 40.53420609521788" fill="red" stroke="none" /><path d="M 98.91598698831166 79.02799685794201 l -1.9833701443913356 -38.37153655125873 a59.422761150576456,59.422761150576456 0 0,0 1.021955950203343,-0.044007572957207544 l 1.3225733617986686 38.39999185074012" fill="red" stroke="none" /><path d="M 99.27714615592234 79.0124445844662 l -1.2979086155176909 -37.683868206073605 a58.70621287993479,58.70621287993479 0 0,0 1.0102315087327507,-0.02609129939730071 l 0.649050471590061 37.70062629761327" fill="red" stroke="none" /></svg>