<?xml version="1.0" encoding="utf-8" ?>
<svg baseProfile="full" height="200mm" version="1.1" viewBox="0,0,200,200" width="200mm" xmlns="http://www.w3.org/2000/svg" xmlns:ev="http://www.w3.org/2001/xml-events" xmlns:xlink="http://www.w3.org/1999/xlink"><defs /><rect fill="#1a1a1a" height="200" width="200" x="0" y="0" /><text alignment-baseline="middle" fill="#e1ed5e" style="dominant-baseline: central; font-size:9.0px; font-family:Arial;" text-anchor="middle" x="100.0" y="100.0">2024</text><line stroke="#e1ed5e" stroke-width="0.3" x1="100.0" x2="100.0" y1="15.0" y2="10.0" /><path d="M 100.0 14.0 a86.0,86.0 0 0,1 42.35913384403234,11.155469271406648" fill="none" id="id37" stroke="none" /><text fill="#e1ed5e" style="font-size:6.75px; font-family:Arial;" text-anchor="middle"><textPath startOffset="22.145653131862478" xlink:href="#id37">January</textPath></text><path d="M 104.64783097203109 79.52079915486377 l 6.185372517580787 -27.253892590282383 a48.94697648232976,48.94697648232976 0 0,0 0.8178057247285497,0.19299992426639595 l -6.652310396049222 27.14369652236976" fill="red" stroke="none" /><path d="M 106.04205211174951 79.88797359093562 l 8.041122965520508 -26.766283118709282 a48.94805128336362,48.94805128336362 0 0,0 0.8026533315288613,0.24866405386307036 l -8.499416929920999 26.624302477039564" fill="red" stroke="none" /><path d="M 108.07796709384702 80.6158196554323 l 10.74981305663774 -25.795638003895114 a48.9459016812959,48.9459016812959 0 0,0 0.7727973434130666,0.32986123253247085 l -11.191045475221236 25.607302121703242" fill="red" stroke="none" /><path d="M 108.73861861582097 80.90454125486305 l 11.633899605125004 -25.422170221792992 a48.95772449266832,48.95772449266832 0 0,0 0.7612023614297929,0.35628114050957904 l -12.068590680426302 25.21871284971288" fill="red" stroke="none" /><line stroke="#e1ed5e" stroke-width="0.3" x1="143.13028292997686" x2="145.6673583964461" y1="26.7553504044142" y2="22.446841604673864" /><path d="M 143.63769802327073 25.89364864446614 a86.0,86.0 0 0,1 29.32050498858742,28.57503671076993" fill="none" id="id38" stroke="none" /><text fill="#e1ed5e" style="font-size:6.75px; font-family:Arial;" text-anchor="middle"><textPath startOffset="20.669276256404974" xlink:href="#id38">February</textPath></text><path d="M 115.41159269507618 85.73525988315684 l 20.816712788379633 -19.26763858144728 a49.36507408449983,49.36507408449983 0 0,0 0.5702895462386051,0.6268481113403749 l -21.144400035460112 18.907452894549234" fill="red" stroke="none" /><path d="M 117.81537515405839 88.88188828441811 l 23.711586400250184 -14.797783615103876 a48.95020088543133,48.95020088543133 0 0,0 0.4387617120467479,0.7166842824055758 l -23.962116076752334 14.388562216573746" fill="red" stroke="none" /><line stroke="#e1ed5e" stroke-width="0.3" x1="172.87174338648825" x2="177.1583165268699" y1="56.24261187166439" y2="53.66864786411523" /><path d="M 173.72905801456457 55.72781907015455 a86.0,86.0 0 0,1 12.242430191666344,42.057860355516425" fill="none" id="id39" stroke="none" /><text fill="#e1ed5e" style="font-size:6.75px; font-family:Arial;" text-anchor="middle"><textPath startOffset="22.145653131862474" xlink:href="#id39">March</textPath></text><path d="M 120.592083275326 95.88100663000786 l 27.71924058778049 -5.544624440164966 a49.26834199145277,49.26834199145277 0 0,0 0.15877006550820524,0.8307520725826127 l -27.810336945570853 5.0679698025490385" fill="red" stroke="none" /><line stroke="#e1ed5e" stroke-width="0.3" x1="184.99686870605535" x2="189.99668451229388" y1="99.2704041080226" y2="99.22748670261217" /><path d="M 185.99683186730306 99.26182062694052 a86.0,86.0 0 0,1 -10.086455211305974,41.156179273409016" fill="none" id="id40" stroke="none" /><text fill="#e1ed5e" style="font-size:6.75px; font-family:Arial;" text-anchor="middle"><textPath startOffset="21.40746469413373" xlink:href="#id40">April</textPath></text><path d="M 120.96210409425399 101.26102812881392 l 27.894398569521908 1.678057750040266 a48.94482688026204,48.94482688026204 0 0,0 -0.057652435165679965,0.8382537543387377 l -27.86148217319116 -2.156654928533347" fill="red" stroke="none" /><path d="M 120.9064616781168 101.97986365728391 l 27.82998499302095 2.6355285135653848 a48.95450008956675,48.95450008956675 0 0,0 -0.08641077121791922,0.8359458260008793 l -27.780641829321365 -3.112878861849196" fill="red" stroke="none" /><path d="M 120.77682067341334 103.0534771498775 l 27.65634782988122 4.064530732349653 a48.9534252885329,48.9534252885329 0 0,0 -0.1293268090346955,0.8303708867957718 l -27.582499528708258 -4.538689801076876" fill="red" stroke="none" /><path d="M 119.16976305983485 108.57439118712176 l 25.51716854723672 11.413504925898243 a48.9534252885329,48.9534252885329 0 0,0 -0.3497035377065378,0.7641653413291027 l -25.317480544675128 -11.849859249442034" fill="red" stroke="none" /><path d="M 118.8641267826498 109.22738970284198 l 38.623740813087714 18.89280709201533 a63.99687795890165,63.99687795890165 0 0,0 -0.49119154017114014,0.9827121165105859 l -38.29372935970485 -19.55305106468966" fill="red" stroke="none" /><line stroke="#e1ed5e" stroke-width="0.3" x1="174.33088141563837" x2="178.70328620479359" y1="141.23008692659167" y2="143.65538615756765" /><path d="M 175.20536237346943 141.71514677278685 a86.0,86.0 0 0,1 -30.301960400862466,31.631185727798858" fill="none" id="id41" stroke="none" /><text fill="#e1ed5e" style="font-size:6.75px; font-family:Arial;" text-anchor="middle"><textPath startOffset="22.145653131862474" xlink:href="#id41">May</textPath></text><path d="M 118.18653347947321 110.5 l 46.54350778416148 26.871906748215057 a74.74381349643014,74.74381349643014 0 0,0 -0.6510765949359397,1.1056703971405166 l -46.07535747909577 -27.666928313649123" fill="red" stroke="none" /><path d="M 117.62189284568427 111.42229804090321 l 23.44820642058103 15.198844108627695 a48.94321467871126,48.94321467871126 0 0,0 -0.4630390779674421,0.701100180672732 l -23.183842903692863 -15.599124167639488" fill="red" stroke="none" /><path d="M 117.01052211995028 112.31430620078461 l 22.635569253404668 16.386406534140253 a48.94428947974511,48.94428947974511 0 0,0 -0.4985278415534216,0.6763487621114085 l -22.350939392267417 -16.77256160552054" fill="red" stroke="none" /><path d="M 116.57777611688842 112.89097897827486 l 22.060146840294735 17.154103612618478 a48.94482688026204,48.94482688026204 0 0,0 -0.5214571818834222,0.6588441146475529 l -21.76242322776975 -17.530267671180713" fill="red" stroke="none" /><path d="M 115.16444852881244 114.52719865689866 l 20.187184596279735 19.33886619064586 a48.95557489060061,48.95557489060061 0 0,0 -0.5865651809392919,0.6018675492157877 l -19.852232614189635 -19.682556431929385" fill="red" stroke="none" /><path d="M 112.45986205192187 116.90419585922612 l 16.585834233815795 22.501869539866533 a48.95396268904982,48.95396268904982 0 0,0 -0.680737462983181,0.49280142622363327 l -16.197115760458647 -22.78327173746324" fill="red" stroke="none" /><path d="M 111.8722381534696 117.32195027204791 l 15.802104840142812 23.055743213392944 a48.95127568646518,48.95127568646518 0 0,0 -0.6972146790575546,0.46911715177242086 l -15.403993872988254 -23.323610039222483" fill="red" stroke="none" /><path d="M 111.5731344415666 117.5232005979908 l 15.403697710682003 23.323161611743462 a48.95073828594826,48.95073828594826 0 0,0 -0.705157221101249,0.45707439124998445 l -15.001054857323744 -23.584149844697343" fill="red" stroke="none" /><line stroke="#e1ed5e" stroke-width="0.3" x1="143.1302829299769" x2="145.66735839644613" y1="173.24464959558577" y2="177.55315839532614" /><path d="M 143.63769802327073 174.10635135553383 a86.0,86.0 0 0,1 -40.68552437913181,11.842963189579606" fill="none" id="id42" stroke="none" /><text fill="#e1ed5e" style="font-size:6.75px; font-family:Arial;" text-anchor="middle"><textPath startOffset="21.407464694133747" xlink:href="#id42">June</textPath></text><path d="M 109.3889696526874 118.78422872680471 l 24.027324083426173 48.070743433168474 a74.74112649384548,74.74112649384548 0 0,0 -1.152578465411384,0.5637838838761485 l -23.198585368752717 -48.47612106714184" fill="red" stroke="none" /><path d="M 108.07796709384702 119.3841803445677 l 10.75622135256397 25.81101558125984 a48.96256109732067,48.96256109732067 0 0,0 -0.778610897482891,0.31665427369196125 l -10.311555993890638 -25.991857111531097" fill="red" stroke="none" /><path d="M 106.72888874123015 119.89276391827305 l 8.96312707624719 26.497892557615703 a48.97277170714231,48.97277170714231 0 0,0 -0.7986695611459331,0.26253854834187346 l -8.506934777453523 -26.647852027359598" fill="red" stroke="none" /><path d="M 105.3480935250658 120.30758222061773 l 7.168336734200977 27.219342169800512 a49.14742687514394,49.14742687514394 0 0,0 -0.8177071810365306,0.20785796780042523 l -6.70002425993905 -27.338385369436207" fill="red" stroke="none" /><path d="M 102.15924093988457 120.88869738790638 l 2.8765750720231993 27.828254403281154 a48.9765335107608,48.9765335107608 0 0,0 -0.8370332981381182,0.07926792359391914 l -2.398442210500066 -27.873534082380257" fill="red" stroke="none" /><line stroke="#e1ed5e" stroke-width="0.3" x1="101.45913802915013" x2="101.54496967792366" y1="184.9874750549273" y2="189.98673829345242" /><path d="M 101.47630435890484 185.9873277026323 a86.0,86.0 0 0,1 -42.54439059252881,-10.42667462771756" fill="none" id="id43" stroke="none" /><text fill="#e1ed5e" style="font-size:6.75px; font-family:Arial;" text-anchor="middle"><textPath startOffset="22.145653131862474" xlink:href="#id43">July</textPath></text><path d="M 100.36049292484886 120.99690560180557 l 1.0814787745465644 62.990716805416696 a84.0,84.0 0 0,0 -1.4419716993954088,0.012377592777739643 l -7.715274834628325e-15 -63.0" fill="red" stroke="none" /><path d="M 95.35216902796893 120.47920084513623 l -6.191081653048124 27.2790480945577 a48.97277170714231,48.97277170714231 0 0,0 -0.8182367111558655,-0.1931016358897289 l 6.658450517943877 -27.168750315021743" fill="red" stroke="none" /><path d="M 94.30408787586889 120.21278271476187 l -7.589204919902004 26.931410927829454 a48.980295314379305,48.980295314379305 0 0,0 -0.8073351816030712,-0.23500350513564988 l 8.050400113886681 -26.79716372839129" fill="red" stroke="none" /><line stroke="#e1ed5e" stroke-width="0.3" x1="58.13341422392154" x2="55.67067388415222" y1="173.97424548756322" y2="178.32567169271397" /><path d="M 57.64086615596768 174.84453072859336 a86.0,86.0 0 0,1 -31.369924170532247,-30.572349798747897" fill="none" id="id44" stroke="none" /><text fill="#e1ed5e" style="font-size:6.75px; font-family:Arial;" text-anchor="middle"><textPath startOffset="22.145653131862474" xlink:href="#id44">August</textPath></text><path d="M 89.34428304082925 118.09573695890944 l -2.7513929963414 4.672466819750652 a26.422371215804695,26.422371215804695 0 0,0 -0.38887092556595887,-0.23350581763314698 l 2.831196678464786 -4.624547001581587" fill="red" stroke="none" /><path d="M 87.83215693770417 117.11559508785305 l -31.494962621976452 44.301609150036704 a75.35591268521125,75.35591268521125 0 0,0 -1.0478741659373305,-0.7585800863872522 l 32.250817798287734 -43.75442829227639" fill="red" stroke="none" /><path d="M 84.3458050057657 113.99807769240083 l -20.865983946175046 18.658491510711716 a48.99158072523479,48.99158072523479 0 0,0 -0.5552121034183447,-0.6317294548100066 l 21.183207113551987 -18.29754977809041" fill="red" stroke="none" /><path d="M 82.98947788004972 112.3143062007846 l -22.6625583357661 16.40594454843124 a48.97760831179467,48.97760831179467 0 0,0 -0.48717537554511475,-0.6852731763479599 l 22.940848809841174 -16.014494145373774" fill="red" stroke="none" /><line stroke="#e1ed5e" stroke-width="0.3" x1="26.387840678322732" x2="22.057713659400534" y1="142.50000000000003" y2="145.00000000000006" /><path d="M 25.521815274538284 143.00000000000003 a86.0,86.0 0 0,1 -11.493303480769212,-40.785679425670985" fill="none" id="id45" stroke="none" /><text fill="#e1ed5e" style="font-size:6.75px; font-family:Arial;" text-anchor="middle"><textPath startOffset="21.40746469413373" xlink:href="#id45">September</textPath></text><path d="M 80.5471966667186 107.91128576633889 l -25.898905909289297 10.532859566485339 a48.958799293702185,48.958799293702185 0 0,0 -0.309935602389159,-0.7812401829411819 l 26.07590018664458 -10.086718366330592" fill="red" stroke="none" /><path d="M 79.13060592940153 102.33845913500099 l -35.605129188339156 3.989628990745974 a56.82795506308058,56.82795506308058 0 0,0 -0.10030839687370423,-0.970392747310928 l 35.668369977694525 -3.3778317211521145" fill="red" stroke="none" /><path d="M 79.03789590574601 101.26102812881392 l -53.6425377414158 3.227001864351486 a74.7395142922947,74.7395142922947 0 0,0 -0.06604983762155997,-1.281349204502336 l 53.690029168493936 -2.3056808664724193" fill="red" stroke="none" /><path d="M 79.00696218219943 100.54070618675478 l -27.935025039993132 0.7195071526744946 a48.94428947974511,48.94428947974511 0 0,0 -0.014423575395242538,-0.8401009566036948 l 27.943260046987042 -0.23985928010174748" fill="red" stroke="none" /><line stroke="#e1ed5e" stroke-width="0.3" x1="15.003131293944662" x2="10.003315487706104" y1="100.72959589197737" y2="100.7725132973878" /><path d="M 14.003168132696942 100.73817937305945 a86.0,86.0 0 0,1 10.791469493833604,-42.45332614584628" fill="none" id="id46" stroke="none" /><text fill="#e1ed5e" style="font-size:6.75px; font-family:Arial;" text-anchor="middle"><textPath startOffset="22.145653131862435" xlink:href="#id46">October</textPath></text><path d="M 79.13060592940154 97.66154086499901 l -27.808412858102262 -3.1159906635489336 a48.982444916447015,48.982444916447015 0 0,0 0.10080567043759786,-0.8348155597783748 l 27.750825101404995 3.5928999002507447" fill="red" stroke="none" /><path d="M 79.64726062577567 94.8264132398404 l -41.696631166217394 -10.599120589044626 a64.0226731837142,64.0226731837142 0 0,0 0.27990261263172245,-1.0628358111434522 l 41.50853907278095 11.313336904560863" fill="red" stroke="none" /><path d="M 79.83685265289637 94.1308016681162 l -26.867856936587593 -7.82084157789803 a48.98298231696394,48.98298231696394 0 0,0 0.2419378658625064,-0.8053324694299137 l 26.729642750721457 8.280911650918666" fill="red" stroke="none" /><path d="M 80.16572619554312 93.10060997987247 l -26.42861024961654 -9.193242545692348 a48.98190751593008,48.98190751593008 0 0,0 0.2830683793836464,-0.7917926367352798 l 26.266901700188953 9.64557013880855" fill="red" stroke="none" /><path d="M 80.28708602549916 92.7611449362534 l -26.25378565332413 -9.640753744723607 a48.96793510248996,48.96793510248996 0 0,0 0.2965342296191774,-0.7865922744506876 l 26.084420739890515 10.09001429936844" fill="red" stroke="none" /><line stroke="#e1ed5e" stroke-width="0.3" x1="26.387840678322718" x2="22.05771365940052" y1="57.49999999999999" y2="54.99999999999999" /><path d="M 25.521815274538284 56.99999999999999 a86.0,86.0 0 0,1 29.574782752854787,-30.34633250058573" fill="none" id="id47" stroke="none" /><text fill="#e1ed5e" style="font-size:6.75px; font-family:Arial;" text-anchor="middle"><textPath startOffset="21.40746469413373" xlink:href="#id47">November</textPath></text><path d="M 81.81346652052679 89.5 l -24.225130912647835 -13.986385853571157 a48.97277170714231,48.97277170714231 0 0,0 0.42659083014518895,-0.7244444912499681 l 23.98146637237287 14.400181513114697" fill="red" stroke="none" /><path d="M 82.78059297857968 87.97951657250589 l -22.949661874826408 -16.020646349190606 a48.98835632213323,48.98835632213323 0 0,0 0.4872822849298766,-0.6854235577862566 l 22.67126449136656 16.41224713368638" fill="red" stroke="none" /><path d="M 82.98947788004972 87.6856937992154 l -22.670393875806507 -16.41161687516086 a48.98728152109936,48.98728152109936 0 0,0 0.49896574206866995,-0.6769428582615731 l 22.38532611415402 16.7983660426913" fill="red" stroke="none" /><path d="M 86.13680546590413 84.22622945171909 l -18.473025119249332 -21.01891153925673 a48.98298231696394,48.98298231696394 0 0,0 0.63636012945149,-0.5496727234461845 l 18.109485510034993 21.332928395167624" fill="red" stroke="none" /><line stroke="#e1ed5e" stroke-width="0.3" x1="56.869717070023135" x2="54.33264160355391" y1="26.7553504044142" y2="22.446841604673864" /><path d="M 56.362301976729285 25.89364864446614 a86.0,86.0 0 0,1 42.16139366436587,-11.88097634709845" fill="none" id="id48" stroke="none" /><text fill="#e1ed5e" style="font-size:6.75px; font-family:Arial;" text-anchor="middle"><textPath startOffset="22.145653131862474" xlink:href="#id48">December</textPath></text><path d="M 96.76829788921471 79.25015418208739 l -4.307226996287327 -27.65548711233014 a48.98889372265015,48.98889372265015 0 0,0 0.8320527854725043,-0.12228310615315825 l 3.831849105207138 27.725351291782182" fill="red" stroke="none" /><path d="M 97.48249496171623 79.15144685158666 l -3.3543111631722797 -27.778508284292272 a48.980295314379305,48.980295314379305 0 0,0 0.835613397149176,-0.09363222407332077 l 2.8769618644223045 27.83199626887256" fill="red" stroke="none" /><path d="M 98.1996594967304 79.07731436759882 l -2.3988568550359837 -27.878352880412134 a48.981370115413156,48.981370115413156 0 0,0 0.8383534808509565,-0.06489386153583528 l 1.9199343794098098 27.915424508943023" fill="red" stroke="none" /></svg>