<?xml version="1.0" encoding="utf-8" ?>
<svg baseProfile="full" height="200mm" version="1.1" viewBox="0,0,200,200" width="200mm" xmlns="http://www.w3.org/2000/svg" xmlns:ev="http://www.w3.org/2001/xml-events" xmlns:xlink="http://www.w3.org/1999/xlink"><defs /><rect fill="#1a1a1a" height="200" width="200" x="0" y="0" /><text alignment-baseline="middle" fill="#e1ed5e" style="dominant-baseline: central; font-size:9.0px; font-family:Arial;" text-anchor="middle" x="100.0" y="100.0">2022</text><line stroke="#e1ed5e" stroke-width="0.3" x1="100.0" x2="100.0" y1="15.0" y2="10.0" /><path d="M 100.0 14.0 a86.0,86.0 0 0,1 42.46469731375804,11.215312516191453" fill="none" id="id13" stroke="none" /><text fill="#e1ed5e" style="font-size:6.75px; font-family:Arial;" text-anchor="middle"><textPath startOffset="22.20632615414155" xlink:href="#id13">January</textPath></text><path d="M 100.0 79.0 l 0.0 -34.60514541387024 a55.60514541387024,55.60514541387024 0 0,0 0.957151172105926,0.008238502321725254 l -0.5956706928333977 34.600018288157074" fill="red" stroke="none" /><path d="M 100.36148047927253 79.00311137660856 l 0.49195733384748785 -28.575743196546448 a49.57997762863535,49.57997762863535 0 0,0 0.8531849210772922,0.02203524937072441 l -0.9837688901196477 28.563041155033364" fill="red" stroke="none" /><path d="M 101.08401301168833 79.027996857942 l 1.8155803312841066 -35.125368424356644 a56.17225950782998,56.17225950782998 0 0,0 0.9651944301359523,0.058223163857456565 l -2.419936810259671 35.088911991118884" fill="red" stroke="none" /><path d="M 101.44485096284872 79.0497635885617 l 1.9235049824203372 -27.890685722237304 a48.956935123042506,48.956935123042506 0 0,0 0.840217129385519,0.06521702019635554 l -2.403312301168197 27.853443439852484" fill="red" stroke="none" /><path d="M 102.16513564639614 79.11191278185805 l 5.92137036307586 -57.12625941045536 a78.43232662192393,78.43232662192393 0 0,0 1.3416906306569365,0.15075457529411293 l -6.903827697242521 57.01586888169064" fill="red" stroke="none" /><path d="M 102.52436894288641 79.15227682838746 l 2.147542269697999 -17.735666913572476 a38.865212527964204,38.865212527964204 0 0,0 0.6634574411755957,0.08613581722065027 l -2.452514439381441 17.69607277318769" fill="red" stroke="none" /><path d="M 103.2404852339499 79.25152402106235 l 4.405050796614228 -28.20506314362777 a49.54697986577181,49.54697986577181 0 0,0 0.8415219353402856,0.13885832976932594 l -4.889901938093389 28.125058550918816" fill="red" stroke="none" /><path d="M 103.59715602781102 79.31037775812273 l 5.845618049029866 -33.62201368794257 a55.12639821029083,55.12639821029083 0 0,0 0.9334864837906539,0.17058868821729803 l -6.423499653923421 33.51640951837453" fill="red" stroke="none" /><path d="M 104.307194497241 79.44645832069477 l 7.002689764530049 -33.41620073918362 a55.1420581655481,55.1420581655481 0 0,0 0.9273247164910798,0.20267726559965218 l -7.576857205174657 33.2907099754881" fill="red" stroke="none" /><path d="M 104.66035177308747 79.52364482259891 l 7.66088453420364 -33.65990387276893 a55.520693512304256,55.520693512304256 0 0,0 0.9300411838591491,0.22011069979396583 l -8.239149405025312 33.52304726083409" fill="red" stroke="none" /><path d="M 106.0581310904928 79.89281104454417 l 13.23856855856808 -43.93935943786783 a66.8903803131991,66.8903803131991 0 0,0 1.0995970337647305,0.34165015095479223 l -13.992950965043528 43.704969152030515" fill="red" stroke="none" /><path d="M 106.40334571778207 80.00007090966166 l 8.670813616568433 -27.082038848118746 a49.43624161073825,49.43624161073825 0 0,0 0.8082052832733629,0.26645257497809716 l -9.135701722084214 26.928772548881412" fill="red" stroke="none" /><line stroke="#e1ed5e" stroke-width="0.3" x1="143.23703022742887" x2="145.7803849466894" y1="26.81831364943548" y2="22.513508569990506" /><path d="M 143.74570117128098 25.957352633546492 a86.0,86.0 0 0,1 28.547481713284135,27.462654790039103" fill="none" id="id14" stroke="none" /><text fill="#e1ed5e" style="font-size:6.75px; font-family:Arial;" text-anchor="middle"><textPath startOffset="19.985693538727396" xlink:href="#id14">February</textPath></text><path d="M 113.34407831869373 83.78471172551755 l 18.86679529622916 -22.926313622981898 a50.691275167785236,50.691275167785236 0 0,0 0.6689859454611015,0.5602564903178275 l -19.25863877864938 22.59815597527025" fill="red" stroke="none" /><path d="M 114.42810811169701 84.74124197986012 l 20.351824811652293 -21.523512831008002 a50.62192393736018,50.62192393736018 0 0,0 0.6279933060123732,0.6041290628254642 l -20.719301361277086 21.170000681420237" fill="red" stroke="none" /><path d="M 114.68862486808459 84.99185889309783 l 24.175126227705643 -24.700998831478135 a55.56263982102909,55.56263982102909 0 0,0 0.6777694843021574,0.674858926742125 l -24.59673151217512 24.28120405408589" fill="red" stroke="none" /><path d="M 115.9244219780498 86.31012108654704 l 21.701626521167814 -18.656415894358908 a49.6185682326622,49.6185682326622 0 0,0 0.551213587745018,0.6524630261746278 l -22.01955072239995 18.280093918555174" fill="red" stroke="none" /><path d="M 116.60985879189232 87.15038557335679 l 45.41788675887867 -35.13589972296487 a78.42225950782998,78.42225950782998 0 0,0 0.8168016655405089,1.0748152474362778 l -46.015964364643295 34.34889969964756" fill="red" stroke="none" /><path d="M 116.82858285166822 87.43820079747576 l 22.809210570126197 -17.02607555701672 a49.46308724832215,49.46308724832215 0 0,0 0.5034338593079494,0.6866832183256923 l -23.098907041947772 16.630929895019534" fill="red" stroke="none" /><path d="M 117.45458315368197 88.32363383020206 l 23.772037746697247 -15.902471854456346 a49.600671140939596,49.600671140939596 0 0,0 0.4686161925174995,0.7137346111131353 l -24.042250574572673 15.490919179365537" fill="red" stroke="none" /><path d="M 117.65298651832404 88.62581576622439 l 24.161667283203077 -15.56786183397774 a49.742729306487696,49.742729306487696 0 0,0 0.4575677423533797,0.7237622832720385 l -24.426062621802412 15.149651902991495" fill="red" stroke="none" /><line stroke="#e1ed5e" stroke-width="0.3" x1="172.23445277983987" x2="176.4835382374775" y1="55.19839476539836" y2="52.563006222186495" /><path d="M 173.08426987136738 54.67131705675599 a86.0,86.0 0 0,1 12.851231095245387,41.99856678651699" fill="none" id="id15" stroke="none" /><text fill="#e1ed5e" style="font-size:6.75px; font-family:Arial;" text-anchor="middle"><textPath startOffset="22.20632615414155" xlink:href="#id15">March</textPath></text><path d="M 118.03404312379186 89.2402003453031 l 24.438750832744788 -14.58109315622516 a49.45805369127517,49.45805369127517 0 0,0 0.42990901051759595,0.7348538560278226 l -24.686119517732706 14.158259887843442" fill="red" stroke="none" /><path d="M 118.21658344932153 89.55222093294921 l 24.57259335050299 -14.093149088288474 a49.32718120805369,49.32718120805369 0 0,0 0.4160920584566709,0.7401813431948701 l -24.811543050252098 13.66808423515881" fill="red" stroke="none" /><path d="M 118.56541770881063 90.18545643968196 l 25.0812128128563 -13.259096000870706 a49.37024608501119,49.37024608501119 0 0,0 0.3907080562805979,0.7547236048575243 l -25.305730302297015 12.825399673752838" fill="red" stroke="none" /><path d="M 118.89224826269711 90.83032412892265 l 25.72702775562556 -12.48705301587106 a49.59731543624161,49.59731543624161 0 0,0 0.36617416027785926,0.7712561675987237 l -25.938160109745176 12.042354432631797" fill="red" stroke="none" /><path d="M 119.04729006885535 91.15688171328212 l 25.75351076530438 -11.95662696229076 a49.3937360178971,49.3937360178971 0 0,0 0.3513957008379954,0.7742538475312769 l -25.95550878310572 11.511551105917421" fill="red" stroke="none" /><path d="M 119.34039704204932 91.81776055985345 l 26.1750547695169 -11.073741920473184 a49.421140939597315,49.421140939597315 0 0,0 0.3247164599526251,0.7863266640538477 l -26.361792916355725 10.621540685966032" fill="red" stroke="none" /><path d="M 119.47837535516314 92.15188598940014 l 26.777837899706125 -10.789171117320594 a49.869686800894854,49.869686800894854 0 0,0 0.3139568695456061,0.7989859880807924 l -26.95958831913343 10.326636124344017" fill="red" stroke="none" /><path d="M 119.97218684219823 93.5106431181261 l 26.923197219684287 -8.747877062238448 a49.30872483221477,49.30872483221477 0 0,0 0.25533587751837306,0.8094845085538827 l -27.069788580970865 8.283142387258145" fill="red" stroke="none" /><path d="M 120.28053869075195 94.5502522615342 l 27.594884460171443 -7.415244805534718 a49.57382550335571,49.57382550335571 0 0,0 0.2143564380441065,0.8260027972781773 l -27.71843723008585 6.939145582707691" fill="red" stroke="none" /><path d="M 120.37134235888165 94.90015583598534 l 27.442283686337305 -6.87001218866584 a49.289149888143186,49.289149888143186 0 0,0 0.198957295882983,0.8248064376022213 l -27.556473782481106 6.396620519404213" fill="red" stroke="none" /><path d="M 120.67395015179393 96.31383870115 l 28.095495216671704 -5.009421343251799 a49.538590604026844,49.538590604026844 0 0,0 0.1424544414042358,0.8407741770513666 l -28.177561519596164 4.525061377884596" fill="red" stroke="none" /><path d="M 120.83666639777658 97.38593545837742 l 28.299975399153407 -3.550374172502571 a49.52181208053691,49.52181208053691 0 0,0 0.09883055537704324,0.8467198436674633 l -28.356896307534036 3.062710590510255" fill="red" stroke="none" /><path d="M 120.94382443527127 98.46500227214037 l 28.51300781618719 -2.089752153316521 a49.58948545861298,49.58948545861298 0 0,0 0.05506654729952313,0.8518551136928831 l -28.54475495449113 1.5986379753706028" fill="red" stroke="none" /><path d="M 120.96714384426684 98.82574320788733 l 56.871171961738504 -3.185048018342248 a77.9602908277405,77.9602908277405 0 0,0 0.06350567986332764,1.3405045305875198 l -56.917571249835326 2.2056323811317284" fill="red" stroke="none" /><line stroke="#e1ed5e" stroke-width="0.3" x1="184.98032266829074" x2="189.97916517819016" y1="98.17113171792111" y2="98.06355123074" /><path d="M 185.9800911702706 98.14961562048488 a86.0,86.0 0 0,1 -9.607161424134198,41.387399972396054" fill="none" id="id16" stroke="none" /><text fill="#e1ed5e" style="font-size:6.75px; font-family:Arial;" text-anchor="middle"><textPath startOffset="21.466115282336823" xlink:href="#id16">April</textPath></text><path d="M 120.99980553446 99.90962569577887 l 28.481279877553405 -0.12257141372272955 a49.48154362416108,49.48154362416108 0 0,0 -0.003665646263603918,0.8517670963802441 l -28.479169934000296 -0.36770516086119925" fill="red" stroke="none" /><path d="M 120.99824983174949 100.27111621757518 l 28.632401010326575 0.3696835843089354 a49.63478747203579,49.63478747203579 0 0,0 -0.018383631695260555,0.8542151277850931 l -28.621795315946308 -0.8624885278841433" fill="red" stroke="none" /><path d="M 120.95626037817324 101.35467743843564 l 28.275435796287752 1.8278115581662524 a49.334451901566,49.334451901566 0 0,0 -0.0620755236022897,0.8469712003201209 l -28.239783714021126 -2.3142558949831433" fill="red" stroke="none" /><path d="M 120.92983693683757 101.71520430193887 l 28.33454434785681 2.3220215477830157 a49.42953020134228,49.42953020134228 0 0,0 -0.07679325612634712,0.8474071822754163 l -28.290376495453387 -2.8094101186070026" fill="red" stroke="none" /><path d="M 120.81339534386255 102.79330883721812 l 28.088216918722782 3.7696427346201196 a49.340044742729305,49.340044742729305 0 0,0 -0.12021572438786166,0.8407884963749943 l -28.019167143318317 -4.2525767029755235" fill="red" stroke="none" /><path d="M 120.70491114924044 103.5080841355445 l 39.72025567013122 6.729900832309081 a61.28635346756152,61.28635346756152 0 0,0 -0.18518272207498937,1.0386030492876832 l -39.59852650571705 -7.412622632329983" fill="red" stroke="none" /><path d="M 120.32669344350535 105.2749913415812 l 29.536718892380296 7.665090087035587 a51.51510067114094,51.51510067114094 0 0,0 -0.23013003292413023,0.8563994629842715 l -29.40040078311439 -8.172380483195408" fill="red" stroke="none" /><line stroke="#e1ed5e" stroke-width="0.3" x1="174.80103733775053" x2="179.2010983576182" y1="140.37084112569926" y2="142.7455964860345" /><path d="M 175.68104954172406 140.8457921977663 a86.0,86.0 0 0,1 -30.038265399797805,32.042727171017184" fill="none" id="id17" stroke="none" /><text fill="#e1ed5e" style="font-size:6.75px; font-family:Arial;" text-anchor="middle"><textPath startOffset="22.206326154141568" xlink:href="#id17">May</textPath></text><path d="M 118.48025628344425 109.97397251340804 l 25.46326140088079 13.742767709430032 a49.935123042505595,49.935123042505595 0 0,0 -0.41475540264545724,0.7529015296519195 l -25.222929588783824 -14.179039757479758" fill="red" stroke="none" /><path d="M 115.80600337817218 113.82643327865902 l 22.52359690935551 19.70270424544396 a50.92505592841164,50.92505592841164 0 0,0 -0.5828279296932095,0.6548133575267696 l -22.18111013001397 -20.087491772711598" fill="red" stroke="none" /><path d="M 115.32070863581623 114.36230785411682 l 22.07401237053964 20.69315256737685 a51.25671140939597,51.25671140939597 0 0,0 -0.6089625568811132,0.6384948062896284 l -21.714543262279566 -21.070054490248985" fill="red" stroke="none" /><path d="M 114.81725581225074 114.88116024355365 l 20.801693981867828 20.89140832849802 a50.48154362416108,50.48154362416108 0 0,0 -0.6210432952116874,0.6078215766513724 l -20.439000734280345 -21.246380008071966" fill="red" stroke="none" /><path d="M 111.45004920935366 117.60387380957326 l 15.297531655140801 23.519184235038953 a49.05648769574944,49.05648769574944 0 0,0 -0.7118287870740808,0.4543228109240773 l -14.89042106601979 -23.77902147478684" fill="red" stroke="none" /><line stroke="#e1ed5e" stroke-width="0.3" x1="143.8653032363475" x2="146.44561519142675" y1="172.8068346515853" y2="177.08958963109032" /><path d="M 144.38136562736335 173.6633856474863 a86.0,86.0 0 0,1 -40.68145358897372,12.25698825130547" fill="none" id="id18" stroke="none" /><text fill="#e1ed5e" style="font-size:6.75px; font-family:Arial;" text-anchor="middle"><textPath startOffset="21.466115282336833" xlink:href="#id18">June</textPath></text><path d="M 110.5260780823613 118.17145234162733 l 14.35715784888812 24.78514861574789 a49.643176733780756,49.643176733780756 0 0,0 -0.7431139914387085,0.4219595184227439 l -13.928395090528213 -25.02861129996526" fill="red" stroke="none" /><path d="M 106.2309692047433 120.05430185196036 l 8.511907516216533 27.395475255475727 a49.68736017897092,49.68736017897092 0 0,0 -0.8189542291401438,0.2467441912559453 l -8.039078312636144 -27.5379348158374" fill="red" stroke="none" /><path d="M 104.48393922423573 120.51570834832081 l 6.132755376068654 28.059662358261836 a49.72203579418345,49.72203579418345 0 0,0 -0.8377181342426763,0.17555198001140698 l -5.6488457803966 -28.161070318999787" fill="red" stroke="none" /><path d="M 103.41894727170886 120.7198165907248 l 4.6872576090805635 28.406146762563665 a49.79026845637584,49.79026845637584 0 0,0 -0.8468237254248365,0.13225645010184056 l -4.19759802004721 -28.48262152001261" fill="red" stroke="none" /><path d="M 102.70371172650421 120.8252237178851 l 3.694741461560068 28.45858778599132 a49.697427293064884,49.697427293064884 0 0,0 -0.8492878000180409,0.10283692508240233 l -3.204326238490647 -28.517970239799073" fill="red" stroke="none" /><line stroke="#e1ed5e" stroke-width="0.3" x1="102.19456741930631" x2="102.32365962044197" y1="184.97166512339345" y2="189.96999836594603" /><path d="M 102.22038585953345 185.97133177190398 a86.0,86.0 0 0,1 -42.740103519485714,-10.115201625700543" fill="none" id="id19" stroke="none" /><text fill="#e1ed5e" style="font-size:6.75px; font-family:Arial;" text-anchor="middle"><textPath startOffset="22.20632615414155" xlink:href="#id19">July</textPath></text><path d="M 100.18074693466247 120.99922214144158 l 0.29434677782586566 34.1972791169364 a55.19854586129754,55.19854586129754 0 0,0 -0.9501874249766187,0.0 l 0.2943467778258421 -34.1972791169364" fill="red" stroke="none" /><path d="M 99.45781275523022 120.99299961872073 l -0.7443883736850683 28.822044405685332 a49.831655480984345,49.831655480984345 0 0,0 -0.8572934746495414,-0.029526920662444604 l 1.2404022000092527 -28.804960686596793" fill="red" stroke="none" /><path d="M 95.16358092515715 120.4354850818985 l -6.854556234335709 28.962788274164023 a50.76286353467562,50.76286353467562 0 0,0 -0.8485779286131682,-0.20855980905468696 l 7.352087447692087 -28.84050720679531" fill="red" stroke="none" /><path d="M 90.10565033884886 118.52300852407294 l -13.746632011645659 25.73478709053245 a50.17617449664429,50.17617449664429 0 0,0 -0.7583225320444474,-0.4134979074084534 l 14.187577355558746 -25.49434853136423" fill="red" stroke="none" /><line stroke="#e1ed5e" stroke-width="0.3" x1="58.666819895761336" x2="56.23545636021788" y1="174.27360380694188" y2="178.64263932499728" /><path d="M 58.180547188652646 175.14741091055294 a86.0,86.0 0 0,1 -31.652253787137756,-30.449443065178592" fill="none" id="id20" stroke="none" /><text fill="#e1ed5e" style="font-size:6.75px; font-family:Arial;" text-anchor="middle"><textPath startOffset="22.20632615414155" xlink:href="#id20">August</textPath></text><path d="M 89.1626897886671 117.98757091392108 l -14.923092765706732 24.76907868683752 a49.91722595078299,49.91722595078299 0 0,0 -0.732168755929519,-0.4497578501819962 l 15.34724072156856 -24.508532369827147" fill="red" stroke="none" /><path d="M 87.95078237400918 117.19931262002967 l -16.457444496349716 23.491710549649035 a49.68288590604027,49.68288590604027 0 0,0 -0.6962055045594981,-0.49672414210057714 l 16.8593773287581 -23.20494214570424" fill="red" stroke="none" /><path d="M 86.51685102203217 116.09983520530335 l -18.984064051833005 22.668317561488546 a50.567673378076066,50.567673378076066 0 0,0 -0.6625196531182868,-0.5646136214443337 l 19.371449181528348 -22.338179549821263" fill="red" stroke="none" /><path d="M 85.70375840098266 115.38237550388516 l -26.670478628101797 28.696725239590602 a60.17673378076063,60.17673378076063 0 0,0 -0.7526795984575986,-0.7117055402334368 l 27.16049406095021 -28.233385062611237" fill="red" stroke="none" /><path d="M 84.9287848128048 114.62390073753433 l -20.829488679138894 20.211268373111913 a50.0234899328859,50.0234899328859 0 0,0 -0.5943110959721765,-0.6231328081023761 l 21.17430632649003 -19.849728448427037" fill="red" stroke="none" /><path d="M 83.06392112726016 112.41649034213515 l -23.281921358639934 17.06887136438664 a49.86856823266219,49.86856823266219 0 0,0 -0.5015833017159093,-0.6966553363680903 l 23.57228445273145 -16.66558242256741" fill="red" stroke="none" /><path d="M 82.44556493220864 111.52570212397912 l -25.519103114422176 16.755058185130395 a51.52796420581655,51.52796420581655 0 0,0 -0.4804249900752644,-0.7456302534365912 l 25.803732967874485 -16.313306331772356" fill="red" stroke="none" /><line stroke="#e1ed5e" stroke-width="0.3" x1="26.63291911575756" x2="22.317208475507996" y1="142.92168965132927" y2="145.44649492493687" /><path d="M 25.769776987707644 143.4266507060508 a86.0,86.0 0 0,1 -11.730757126820373,-40.83630448921669" fill="none" id="id21" stroke="none" /><text fill="#e1ed5e" style="font-size:6.75px; font-family:Arial;" text-anchor="middle"><textPath startOffset="21.46611528233685" xlink:href="#id21">September</textPath></text><path d="M 81.87401531095188 110.60418214915194 l -24.758372662917104 14.484305152965684 a49.684004474272925,49.684004474272925 0 0,0 -0.4255032870406831,-0.7419008467342415 l 25.004027946110163 -14.055984460373134" fill="red" stroke="none" /><path d="M 81.35079622478065 109.6543875284942 l -25.306156960455986 13.10058322585245 a49.496085011185684,49.496085011185684 0 0,0 -0.38517695489999954,-0.7599906737648898 l 25.52791258514225 -12.663038340384876" fill="red" stroke="none" /><path d="M 81.18737489456691 109.33194174019688 l -31.168994561867272 15.461278780697986 a55.793064876957494,55.793064876957494 0 0,0 -0.41936921877673555,-0.8640248037396165 l 31.430517037258724 -14.922465020993085" fill="red" stroke="none" /><path d="M 80.73074385275274 108.34839909993369 l -26.339474053410715 11.411568760096317 a49.70525727069351,49.70525727069351 0 0,0 -0.33337793886481665,-0.7880069692252973 l 26.532002973467836 -10.956487265204862" fill="red" stroke="none" /><path d="M 80.45479744820244 107.68017299344265 l -26.97277513120524 10.598794183477626 a49.98042505592841,49.98042505592841 0 0,0 -0.3077502318133072,-0.8034387437401419 l 27.151219642612055 -10.132931872904326" fill="red" stroke="none" /><path d="M 80.20201598880116 107.00284435728193 l -27.180837215758494 9.614270443642361 a49.83109619686801,49.83109619686801 0 0,0 -0.27907589604293787,-0.8111251864320291 l 27.34230394274466 -9.144972554121036" fill="red" stroke="none" /><path d="M 79.86692584326677 105.97154293290107 l -33.27201229289469 9.868599714295769 a55.70469798657718,55.70469798657718 0 0,0 -0.26474947709981983,-0.9216276616528774 l 33.436954406880616 -9.294414577138296" fill="red" stroke="none" /><path d="M 79.58551787078972 104.9243191809786 l -27.956553507084077 6.743594659793325 a49.758389261744966,49.758389261744966 0 0,0 -0.19367726564105595,-0.8343565913766924 l 28.06849133865569 -6.261369411068058" fill="red" stroke="none" /><path d="M 79.4281124754447 104.21870165774334 l -28.773686721385825 5.900654459927687 a50.372483221476514,50.372483221476514 0 0,0 -0.16687700161429705,-0.8509022360151695 l 28.870993655975788 -5.4044884968445634" fill="red" stroke="none" /><path d="M 79.18660465613746 102.79330883721812 l -28.903613332668186 3.879074856159174 a50.162751677852356,50.162751677852356 0 0,0 -0.10748800559659491,-0.8567851629969117 l 28.96610284751163 -3.3809719388748536" fill="red" stroke="none" /><path d="M 79.07016306316243 101.71520430193888 l -28.306673573199255 2.319737532253655 a49.40156599552573,49.40156599552573 0 0,0 -0.062159970522511425,-0.8481234114531035 l 28.3424101023861 -1.8321409843037908" fill="red" stroke="none" /><path d="M 79.0095281055655 100.63252640178507 l -28.303148011700333 0.8528864172785923 a49.31599552572706,49.31599552572706 0 0,0 -0.018265558182169423,-0.8487287155926762 l 28.31363563256751 -0.3655678858957872" fill="red" stroke="none" /><line stroke="#e1ed5e" stroke-width="0.3" x1="15.007084014347285" x2="10.007500721073583" y1="101.09737516637583" y2="101.16192664675087" /><path d="M 14.007167355692545 101.11028546245083 a86.0,86.0 0 0,1 10.666146001902534,-42.60595125391555" fill="none" id="id22" stroke="none" /><text fill="#e1ed5e" style="font-size:6.75px; font-family:Arial;" text-anchor="middle"><textPath startOffset="22.20632615414155" xlink:href="#id22">October</textPath></text><path d="M 79.05617556472873 98.46500227214037 l -20.499267386296317 -1.5024156145885097 a41.554250559284114,41.554250559284114 0 0,0 0.05842431891699122,-0.7129246741605217 l 20.470368583559832 1.8550542059568098" fill="red" stroke="none" /><path d="M 79.12142395522702 97.74499172005258 l -27.839769543881147 -3.006857876641304 a49.00167785234899,49.00167785234899 0 0,0 0.09779252481065721,-0.8378266316892307 l 27.7838866660669 3.4856282466553963" fill="red" stroke="none" /><path d="M 79.26566170972629 96.67025291283419 l -27.82966993754459 -4.4691931381670225 a49.18624161073825,49.18624161073825 0 0,0 0.14144121760423953,-0.8347940728284997 l 27.748616858420128 4.94757299931135" fill="red" stroke="none" /><path d="M 79.62865764111835 94.90015583598534 l -27.5453665415676 -6.895818367188343 a49.39541387024609,49.39541387024609 0 0,0 0.21358498896203063,-0.8230300892710637 l 27.42258522073526 7.368944882008271" fill="red" stroke="none" /><path d="M 80.02781315780177 93.51064311812611 l -26.60511455931264 -8.644525740853531 a48.97427293064877,48.97427293064877 0 0,0 0.2674058414184771,-0.7995094297833157 l 26.45237142412239 9.101208273559168" fill="red" stroke="none" /><path d="M 80.803312248108 91.48605970444005 l -26.085879385447587 -11.569371889324467 a49.536353467561526,49.536353467561526 0 0,0 0.3524103063875302,-0.7764893963686198 l 25.882866762096707 12.016683294535158" fill="red" stroke="none" /><path d="M 81.6062741919709 89.86733742301443 l -26.335045960206582 -14.507345463837414 a51.066554809843396,51.066554809843396 0 0,0 0.43076428428976327,-0.7662815957809902 l 26.081424034624387 14.958510569553187" fill="red" stroke="none" /><line stroke="#e1ed5e" stroke-width="0.3" x1="26.266209847984243" x2="21.928928074336255" y1="57.711370442889674" y2="55.22380399835377" /><path d="M 25.398753493254645 57.213857153982495 a86.0,86.0 0 0,1 29.58750427330803,-30.492523968695096" fill="none" id="id23" stroke="none" /><text fill="#e1ed5e" style="font-size:6.75px; font-family:Arial;" text-anchor="middle"><textPath startOffset="21.46611528233685" xlink:href="#id23">November</textPath></text><path d="M 82.54541684631803 88.32363383020206 l -24.82866572976743 -16.60931057566522 a50.87192393736018,50.87192393736018 0 0,0 0.49315614752415693,-0.7236457942192993 l 24.539085116574533 17.034234393154932" fill="red" stroke="none" /><path d="M 86.37877921826538 84.01681056812374 l -40.863662345203856 -47.94956829562878 a84.0,84.0 0 0,0 1.1085698521635585,-0.9283953704247505 l 40.03223495608118 48.64586482344734" fill="red" stroke="none" /><path d="M 86.93701828274178 83.55741782278169 l -35.415612358939306 -44.578192726016546 a77.93400447427292,77.93400447427292 0 0,0 1.0575549581536878,-0.8254384194977432 l 34.643024845626194 45.18120953473751" fill="red" stroke="none" /><path d="M 88.39885842347998 82.49532879139004 l -31.397049266655706 -47.37421922732863 a77.83389261744966,77.83389261744966 0 0,0 1.1231540940310565,-0.7305306653214549 l 30.576928146840363 47.907648816809626" fill="red" stroke="none" /><path d="M 89.00827224532344 82.1063720568725 l -14.919686714201697 -24.288021778774795 a49.50447427293065,49.50447427293065 0 0,0 0.7299268155643764,-0.4397727391706556 l 14.499397832419675 24.54124112740407" fill="red" stroke="none" /><line stroke="#e1ed5e" stroke-width="0.3" x1="56.76296977257108" x2="54.21961505331056" y1="26.818313649435495" y2="22.513508569990535" /><path d="M 56.25429882871898 25.957352633546506 a86.0,86.0 0 0,1 42.26535254187918,-11.944610805530505" fill="none" id="id24" stroke="none" /><text fill="#e1ed5e" style="font-size:6.75px; font-family:Arial;" text-anchor="middle"><textPath startOffset="22.20632615414155" xlink:href="#id24">December</textPath></text><path d="M 89.63071344664047 81.73862282372117 l -14.015161728534034 -24.682137309474555 a49.383668903803134,49.383668903803134 0 0,0 0.7428148285692053,-0.41337564787021475 l 13.588222810892784 24.919728354904954" fill="red" stroke="none" /><path d="M 93.59665428221793 80.00007090966166 l -3.4269530254296066 -10.703594733949853 a32.23881431767338,32.23881431767338 0 0,0 0.5299671556630304,-0.1646633750124267 l 3.2422004970558476 10.760998243844805" fill="red" stroke="none" /><path d="M 96.04723909329186 79.375362276772 l -5.368040485641353 -28.00925553379255 a49.51901565995526,49.51901565995526 0 0,0 0.8385335031839201,-0.15323663793559755 l 4.88511186135454 28.097507653078885" fill="red" stroke="none" /><path d="M 96.75951476605007 79.25152402106235 l -4.379246357364462 -28.039840113967006 a49.37975391498882,49.37975391498882 0 0,0 0.8409396066095177,-0.12393263819494754 l 3.8959377703262947 28.11106723632292" fill="red" stroke="none" /><path d="M 97.47563105711357 79.15227682838746 l -4.6592046575028 -38.47845188130106 a59.75950782997763,59.75950782997763 0 0,0 1.022266904495223,-0.11486359783920719 l 3.9961710494978586 38.55295143261087" fill="red" stroke="none" /><path d="M 97.83486435360386 79.11191278185805 l -6.289722512569306 -60.67992674691779 a82.005033557047,82.005033557047 0 0,0 1.4053119537763425,-0.13345130327744897 l 5.244285431702727 60.779203594710424" fill="red" stroke="none" /><path d="M 98.19473922651362 79.07773832637324 l -1.611070716383166 -18.671675360113962 a39.7410514541387,39.7410514541387 0 0,0 0.6820507061489458,-0.05294026165639826 l 1.289429820871886 18.69664088395882" fill="red" stroke="none" /></svg>